<?xml version="1.0" encoding="utf-8"?>
<!-- Generator: Adobe Illustrator 19.0.0, SVG Export Plug-In . SVG Version: 6.00 Build 0)  -->
<svg version="1.1" id="Layer_1" xmlns="http://www.w3.org/2000/svg" xmlns:xlink="http://www.w3.org/1999/xlink" x="0px" y="0px"
	 viewBox="-49 141 512 512" style="enable-background:new -49 141 512 512;" xml:space="preserve">
<style type="text/css">
	.st0{fill:#F78E36;}
	.st1{fill:#F86F1B;}
	.st2{fill:#F3F3F3;}
	.st3{fill:#E4E4E4;}
	.st4{fill:#A9DBF5;}
	.st5{fill:#88C3E0;}
	.st6{fill:#43809F;}
	.st7{fill:#FFC328;}
	.st8{fill:#29CEF6;}
	.st9{fill:#22B5ED;}
</style>
<g>
	<path class="st0" d="M320.5,578.7H101.2c-12.3,0-22.2-9.8-22.2-21.9V259.2c0-12.1,10-21.9,22.2-21.9h219.3
		c12.3,0,22.2,9.8,22.2,21.9v297.5C342.7,568.8,332.8,578.7,320.5,578.7z"/>
	<path class="st1" d="M320.5,237.3v341.4c12.3,0,22.2-9.8,22.2-21.9V259.2C342.7,247.1,332.8,237.3,320.5,237.3z"/>
	<path class="st2" d="M101.2,553.9V262c0-1.6,1.3-2.8,2.9-2.8h213.6c1.6,0,2.9,1.3,2.9,2.8v291.8c0,1.6-1.3,2.8-2.9,2.8H104
		C102.5,556.7,101.2,555.5,101.2,553.9z"/>
	<path class="st3" d="M298.3,259.2v297.5h19.4c1.6,0,2.9-1.3,2.9-2.8V262c0-1.6-1.3-2.8-2.9-2.8L298.3,259.2z"/>
	<path class="st4" d="M284.2,237.3H137.5c-2.5,0-4.4-2-4.4-4.4v-13.2c0-2.4,2-4.4,4.4-4.4h146.7c2.5,0,4.4,2,4.4,4.4v13.2
		C288.6,235.3,286.6,237.3,284.2,237.3z"/>
	<path class="st5" d="M284.2,215.3h-22.2c2.5,0,4.4,2,4.4,4.4v13.2c0,2.4-2,4.4-4.4,4.4h22.2c2.5,0,4.4-2,4.4-4.4v-13.2
		C288.6,217.3,286.6,215.3,284.2,215.3z"/>
	<path class="st6" d="M267.9,232c-3,0-5.4,2.4-5.4,5.3c0,18.8-15.5,34.2-34.6,34.2h-34.1c-19.1,0-34.6-15.3-34.6-34.2
		c0-2.9-2.4-5.3-5.4-5.3c-3,0-5.4,2.4-5.4,5.3c0,24.7,20.4,44.8,45.4,44.8h34.1c25,0,45.4-20.1,45.4-44.8
		C273.3,234.3,270.9,232,267.9,232z"/>
	<path class="st6" d="M239.3,358.2c-3,0-5.4,2.4-5.4,5.3v106h-66.4c-3,0-5.4,2.4-5.4,5.3s2.4,5.3,5.4,5.3h71.8c3,0,5.4-2.4,5.4-5.3
		V363.5C244.7,360.6,242.2,358.2,239.3,358.2L239.3,358.2z"/>
	<path class="st7" d="M243.5,312.3l9.6,19.1c0.7,1.4,2,2.3,3.5,2.5L278,337c3.9,0.6,5.4,5.2,2.6,7.9l-15.5,14.9
		c-1.1,1.1-1.6,2.6-1.4,4.1l3.7,21c0.7,3.8-3.4,6.7-6.8,4.9l-19.1-9.9c-1.4-0.7-3-0.7-4.4,0l-19.1,9.9c-3.4,1.8-7.5-1.1-6.8-4.9
		l3.7-21c0.3-1.5-0.2-3-1.4-4.1L198,344.9c-2.8-2.7-1.3-7.4,2.6-7.9l21.4-3.1c1.5-0.2,2.9-1.2,3.5-2.5l9.6-19.1
		C236.8,308.8,241.8,308.8,243.5,312.3L243.5,312.3z"/>
	<g>
		<path class="st6" d="M127.8,319h29.6c3,0,5.4-2.4,5.4-5.3c0-2.9-2.4-5.3-5.4-5.3h-29.6c-3,0-5.4,2.4-5.4,5.3
			C122.4,316.6,124.9,319,127.8,319z"/>
		<path class="st6" d="M157.5,332.5h-29.6c-3,0-5.4,2.4-5.4,5.3s2.4,5.3,5.4,5.3h29.6c3,0,5.4-2.4,5.4-5.3S160.5,332.5,157.5,332.5z
			"/>
		<path class="st6" d="M157.5,356.6h-29.6c-3,0-5.4,2.4-5.4,5.3s2.4,5.3,5.4,5.3h29.6c3,0,5.4-2.4,5.4-5.3S160.5,356.6,157.5,356.6z
			"/>
	</g>
	<path class="st6" d="M121.2,520.9c-0.4,2.9-1.4,7-2.3,10.4c-0.8,3.1-3.7,5.3-7,5.3h-10.1c-3.3,0-6.2-2.2-7-5.3
		c-0.9-3.4-1.9-7.5-2.3-10.4c-0.3-2.2-1.6-4-3.5-5.1l-9.3-5.3c-1.9-1.1-4.2-1.3-6.3-0.4c-2.8,1.1-6.9,2.3-10.3,3.3
		c-3.2,0.9-6.5-0.5-8.2-3.3l-5-8.6c-1.6-2.8-1.2-6.3,1.2-8.6c2.5-2.4,5.7-5.3,8-7.1c1.7-1.3,2.7-3.4,2.7-5.6v-10.5
		c0-2.2-1-4.2-2.7-5.6c-2.3-1.8-5.5-4.7-8-7.1c-2.4-2.3-2.8-5.8-1.2-8.6l5-8.6c1.6-2.8,5-4.1,8.2-3.3c3.4,0.9,7.6,2.2,10.3,3.3
		c2,0.8,4.4,0.6,6.3-0.4l9.3-5.3c1.9-1.1,3.2-3,3.5-5.1c0.4-2.9,1.4-7,2.3-10.4c0.8-3.1,3.7-5.3,7-5.3h10.1c3.3,0,6.2,2.2,7,5.3
		c0.9,3.4,1.9,7.5,2.3,10.4c0.3,2.2,1.6,4,3.5,5.1l9.3,5.3c1.9,1.1,4.2,1.3,6.3,0.4c2.8-1.1,6.9-2.3,10.3-3.3
		c3.2-0.9,6.5,0.5,8.2,3.3l5,8.6c1.6,2.8,1.2,6.3-1.2,8.6c-2.5,2.4-5.7,5.3-8,7.1c-1.7,1.3-2.7,3.4-2.7,5.6v10.5
		c0,2.2,1,4.2,2.7,5.6c2.3,1.8,5.5,4.7,8,7.1c2.4,2.3,2.8,5.8,1.2,8.6l-5,8.6c-1.6,2.8-5,4.1-8.2,3.3c-3.4-0.9-7.6-2.2-10.3-3.3
		c-2-0.8-4.4-0.6-6.3,0.4l-9.3,5.3C122.8,516.8,121.5,518.7,121.2,520.9L121.2,520.9z M131.7,474.9c0-13.5-11.1-24.4-24.8-24.4
		s-24.8,10.9-24.8,24.4c0,13.5,11.1,24.4,24.8,24.4S131.7,488.3,131.7,474.9z"/>
	<path class="st8" d="M369.7,533h-62.4c-1.6,0-3-1.3-3-2.9v-81.9c0-1.6,1.3-2.9,3-2.9h62.4c1.6,0,3,1.3,3,2.9V530
		C372.6,531.7,371.3,533,369.7,533L369.7,533z"/>
	<path class="st9" d="M369.7,445.2h-22.3c1.6,0,3,1.3,3,2.9V530c0,1.6-1.3,2.9-3,2.9h22.3c1.6,0,3-1.3,3-2.9v-81.9
		C372.6,446.6,371.3,445.2,369.7,445.2z"/>
	<g>
		<path class="st2" d="M323.7,488.4c3,0,5.4-2.4,5.4-5.3v-8.9c0-2.9-2.4-5.3-5.4-5.3c-3,0-5.4,2.4-5.4,5.3v8.9
			C318.3,486,320.7,488.4,323.7,488.4z"/>
		<path class="st2" d="M338.3,488.4c3,0,5.4-2.4,5.4-5.3v-19.5c0-2.9-2.4-5.3-5.4-5.3s-5.4,2.4-5.4,5.3v19.5
			C332.9,486,335.3,488.4,338.3,488.4z"/>
		<path class="st2" d="M352.9,473.3c-3,0-5.4,2.4-5.4,5.3v4.4c0,2.9,2.4,5.3,5.4,5.3s5.4-2.4,5.4-5.3v-4.4
			C358.2,475.7,355.8,473.3,352.9,473.3z"/>
		<path class="st2" d="M352.9,493.6h-29.2c-3,0-5.4,2.4-5.4,5.3s2.4,5.3,5.4,5.3h29.2c3,0,5.4-2.4,5.4-5.3S355.8,493.6,352.9,493.6z
			"/>
	</g>
</g>
</svg>
